<svg width="25" height="24" viewBox="0 0 25 24" fill="none" xmlns="http://www.w3.org/2000/svg">
<g clip-path="url(#clip0_5988_13288)">
<path d="M12.5 9.81824V14.4655H18.9582C18.6746 15.9601 17.8236 17.2256 16.5472 18.0765L20.4417 21.0983C22.7108 19.0038 24.0199 15.9274 24.0199 12.2729C24.0199 11.422 23.9436 10.6037 23.8017 9.81837L12.5 9.81824Z" fill="#4285F4"/>
<path d="M5.77462 14.2841L4.89625 14.9565L1.78711 17.3783C3.76165 21.2946 7.80862 24.0001 12.4995 24.0001C15.7394 24.0001 18.4557 22.931 20.4412 21.0983L16.5467 18.0765C15.4776 18.7965 14.114 19.2329 12.4995 19.2329C9.37951 19.2329 6.72868 17.1274 5.77952 14.291L5.77462 14.2841Z" fill="#34A853"/>
<path d="M1.78718 6.62195C0.969042 8.23643 0.5 10.0583 0.5 12.0001C0.5 13.9418 0.969042 15.7637 1.78718 17.3782C1.78718 17.389 5.77997 14.28 5.77997 14.28C5.53998 13.56 5.39812 12.7964 5.39812 11.9999C5.39812 11.2035 5.53998 10.4399 5.77997 9.71988L1.78718 6.62195Z" fill="#FBBC05"/>
<path d="M12.4997 4.7783C14.267 4.7783 15.8379 5.38919 17.0925 6.56739L20.5288 3.13107C18.4452 1.18929 15.7398 0.00012207 12.4997 0.00012207C7.80887 0.00012207 3.76165 2.69466 1.78711 6.62195L5.77978 9.72013C6.72882 6.88374 9.37976 4.7783 12.4997 4.7783Z" fill="#EA4335"/>
</g>
<defs>
<clipPath id="clip0_5988_13288">
<rect width="24" height="24" fill="white" transform="translate(0.5 0.00012207)"/>
</clipPath>
</defs>
</svg>
